<?xml version="1.0" encoding="UTF-8"?>
<svg xmlns="http://www.w3.org/2000/svg" version="1.1" viewBox="0 0 1280 1024">
  <defs>
    <style>
      .cls-1 {
        fill: #d51445;
      }

      .cls-2, .cls-3 {
        fill: #fff;
      }

      .cls-4 {
        fill: red;
      }

      .cls-5 {
        fill: #1eacb2;
      }

      .cls-6 {
        fill: #5fc1d0;
      }

      .cls-7 {
        fill: #843e2d;
      }

      .cls-8 {
        fill: #666;
      }

      .cls-9 {
        fill: #6b3225;
      }

      .cls-10 {
        fill: #f5bc3e;
      }

      .cls-3 {
        stroke: #d0d0d0;
        stroke-miterlimit: 10;
      }

      .cls-11 {
        fill: #e51c4e;
      }

      .cls-12 {
        fill: #006380;
      }
    </style>
  </defs>
  <!-- Generator: Adobe Illustrator 28.7.1, SVG Export Plug-In . SVG Version: 1.2.0 Build 142)  -->
  <g>
    <g id="_레이어_1" data-name="레이어_1">
      <g>
        <path class="cls-8" d="M125.5,588.5c0,.8-.2,1.3-.8,1.7-.6.4-1.3.7-2.2.9-.8.2-1.4.5-1.7.9.8.8,1.2,1.2,1.2,1.2,5,3.3,6.4,7.9,4.4,13.8-.9,2.5-2.9,5.6-6.1,9.2-.5.5-1.2,1-2.3,1.4-1,.4-2.1.6-3.1.6-5.9.3-10.9,0-14.8-.8-4-.9-6.7-2.7-8.2-5.6-1.7-3.3-1.2-6.8,1.7-10.7.7-.9,1.9-2.3,3.8-4.2l1.9-1.9c-6-1.1-9.3-1.7-10-1.8-1.8-.4-2.7-1.4-2.7-3v-6c2.3-.8,5.1-1.5,8.4-1.9,3.3-.4,6.4-.6,9.3-.4,2.4.2,5.5.5,9.4.9,1.1.2,2.2.3,3.5.3s2,0,4.1,0c2.1,0,3.5,0,4.1,0v5.4ZM108,621c0,.1.1.7.3,1.8.2,1.1.3,1.7.3,1.8,0,.4.1,1.6.4,3.6.3,2,.5,3.3.5,4,.1,1.2.3,2.2.5,3.1l10.9-.6c2.5-.2,5.3-.3,8.3-.5,3-.1,5-.3,6.1-.3,1.1,0,2.3-.1,3.7-.2,1.4,0,2.7-.2,3.8-.3,1.1-.1,2.3-.2,3.6-.4,1.3-.1,3.2-.3,5.6-.6,1.5-.1,2.7-.2,3.6-.2s1.6.8,2.1,2.4c.4,1.6.7,3.5.7,5.6s-.5,4.1-1.6,6.2c-.4.6-1.2,1-2.4,1.2-.3,0-4.5.3-12.6.8-8.1.5-12.3.8-12.5.8-.3,0-.6,0-1,0-7.9,0-14.6.1-20.3.4-.3,0-1.2,0-2.8.1-1.5,0-2.5.1-2.8.1-3.1,0-5.2-.8-6.1-2.3-.3-.5-.4-1-.4-1.5-.1-1.4-.3-5.1-.6-10.9-.3-5.9-.4-9.2-.5-10v-1.3c0-.8,0-1.7,0-2.5v-1.2s1-.2,2.9-.7c.7-.1,2.1-.2,4.3-.2h3c.4,0,.9,0,1.5.2.6.1.9.3,1.2.5.2.2.3.6.3,1ZM98.9,581c.4-3.3.7-5.3.8-6,0-.2,0-.4.3-.5.9-1,2.9-1.8,5.9-2.4,5.9-1.2,9.3,0,10,3.7.4,1.7,0,3-1.2,4-1.1,1-2.7,1.5-4.6,1.6-.6,0-3.4,0-8.5-.3-.4,0-1.2,0-2.7,0ZM109.7,611.6c1.7,0,3.2-.5,4.4-1.5s1.8-2.3,1.8-3.9c0-1.5-.5-2.6-1.4-3.1s-2.3-.8-4.3-.9c-2.7-.1-4.4,2-5.1,6.4-.1,1.1.2,1.9,1,2.3.8.4,2,.6,3.5.6ZM162,612c0,.2,0,.7-.3,1.5-.2.7-.3,1.1-.3,1.2,0,.3,0,.7,0,1.3,0,2-.6,3.2-1.8,3.8-.2.2-.6.4-1,.6-.4.2-.7.4-.9.5-.2.1-.5.2-.8.4-.4.1-.7.2-1.2.3l-1.3.3c-1.6.4-2.6.3-3-.3-.2-.4-.3-1.1-.4-2.2v-7.2c0-.4,0-.8,0-1.2-.7-.1-1.5-.2-2.3-.3h-4.7c-1.4,0-2.5-.3-3.2-.6-.7-.3-1.1-1-1.2-2-.2-.5-.4-1.5-.6-3-.2-.7-.3-1.2-.3-1.6,0-.9,0-1.6.4-2.1.3-.5.9-.9,1.7-1.2.8-.2,1.6-.4,2.3-.5s1.6-.2,2.8-.2c1.2,0,2-.1,2.5-.2,1.4,0,2.3-.2,2.8-.6,0-.1.1-.2.3-.4,0-.1,0-.4,0-.9,0-.5,0-1,0-1.7v-5c-.1,0-.2,0-.4,0h-.4c-.1,0-.2,0-.4,0-1.1.2-1.8.3-2.3.3-2.8.2-4.4.3-4.8.4,0,0-.3,0-.6,0-.3,0-.5,0-.6,0-.5,0-.9,0-1.2,0-.9,0-1.5-.7-1.9-2.2-.4-1.5-.5-2.9-.4-4.4,0-2.1.6-3.4,1.8-3.8.4-.1,1.3-.2,2.8-.4.3,0,1.2,0,2.6,0,1.5,0,2.3,0,2.5,0,.9,0,1.9-.1,2.8-.3,0-1.8,0-2.7,0-2.8,0-3.3.8-6.2,2.4-8.5.7-.8,1.6-1.1,2.8-.9.5.1,1,.2,1.6.3.2,0,.4,0,.5,0,.3,0,.5,0,.6.2,2.3,0,3.5,1.2,3.6,3.5,0,.4.2,5.1.5,14,0,.2,0,1,.2,2.2.1,1.2.2,2,.2,2.2,0,.8,0,1.5,0,2.2,0,2-.3,5.1-.9,9.2,0,1.2,0,2-.2,2.2,0,.1,0,.4,0,.9,0,.5,0,.8,0,.9,0,.4,0,1-.3,1.8-.2.9-.3,1.4-.3,1.6,0,.3,0,.7,0,1.2v1.2Z"/>
        <path class="cls-8" d="M175.6,581.4c.7-.7,1.2-1,1.7-1,.4,0,2,0,4.9,0v-.2l12.7,1c3.5.3,6.2.6,8.2.8,1.1.1,2,.8,2.8,2.2.8,1.3,1.2,2.6,1,3.9,0,.9-.4,2.5-.9,4.5-.5,2.1-1.2,4.4-1.9,7-.7,2.6-1.2,4.3-1.4,5.1-.4,1.4-.5,2.4-.2,3.2.3.8.9,1.3,2,1.6,1.5.4,4.6,1.2,9.4,2.4,1.5.4,2,1.4,1.5,3.2-.9,4.1-1.7,7.3-2.6,9.6-1.2,3.1-3,4.6-5.4,4.4-.2,0-.4,0-.5,0-.6.4-1.2.5-1.8.5s-1.4,0-1.7-.2c-.3-.1-.7-.4-1.2-.8-.7-.7-1.5-1.5-2.3-2.6-1.6-1.8-2.5-2.9-2.8-3.2-.6-.6-1.2-.9-1.9-.8-.7,0-1.3.4-1.9,1-1.2,1.3-2.2,2.7-3.1,4.3-.2.4-1.6,2.8-4,7.2-.7,1.4-1.9,2.4-3.6,3-1.7.7-3.5.7-5.4,0-3.9-1.3-5.5-5.3-5-11.9.1-1.1.7-2.1,1.9-3,.9-.8,2.6-2.1,4.9-3.9,2.3-1.7,4.4-3.4,6.2-4.9,1.8-1.5,3.2-2.9,4.2-4.1.5-.8,1-1.6,1.5-2.6.5-1,.8-2.1,1-3.4.2-1.3,0-2.3-.8-3.1-.8-.9-1.9-1.4-3.4-1.2-4.9.4-8.7-.7-11.4-3.4-1-.9-1.5-2.1-1.6-3.4,0-1.3,0-4,.3-8.2,0-.2.1-.6.4-1.1.3-.5.5-.8.5-.9,0-.2,0-.6-.3-1.2ZM254.7,595.1c0,.5,0,2.5.2,6,.1,3.5.2,5.5.2,6.1,0,2.8,0,12.1,0,27.8,0,1.5-.2,2.7-.5,3.6-.3.9-.9,1.7-1.8,2.3-.9.6-1.7,1-2.5,1.2-.8.2-2,.6-3.6,1-2.3.5-3.6-.5-3.9-3v-.9c.4-2.8.3-6.7-.5-11.6-.7-4.9-1.8-8.5-3.1-10.5-.3,0-.7.2-1.2.3-.5.1-1,.3-1.5.3-.9.1-1.6.4-2,.8-.4.4-.6,1.2-.6,2.2s0,3.7,0,9.7c0,6.1,0,9.3,0,9.6,0,2.4-.9,4-2.8,4.6-.2,0-.8.3-1.8.7-.9.4-1.5.7-1.8.7-2,.7-3.4,0-4.4-2.1-2.3-4.7-3.4-11.9-3.4-21.4s0-6.2-.2-8c-1.1-11.7-1-22.5.3-32.2,0-1.8.2-2.9.6-3.5.7-.8,1.3-1.3,2-1.5,2-.8,4.5-1.5,7.6-1.9,1.8-.3,2.9.7,3.2,2.9.4,2.5.5,7.1.5,13.8,0,3.8.1,6.2.2,7.1.1,1.2.5,2.1,1.2,2.7.7.6,1.7.8,2.9.6.2,0,.5-.1.7-.3.2-.1.5-.1.8,0,.8,0,1.4-.1,1.8-.5.4-.4.5-1,.4-1.9,0-11.5,0-17.8,0-18.8,0-1.7.6-2.5,1.9-2.7,3.8-.4,6.5-.6,8.3-.5.9,0,1.5.4,1.7,1.1.3.7.4,1.8.4,3.1s.2,4.4.5,13.1Z"/>
        <path class="cls-12" d="M302.5,580.5c.5.1,1.6.4,3.1.8,1.5.4,2.6.7,3.1.8.5.1,1.4.3,2.6.5,1.2.2,2.3.3,3.4.4,1.1,0,2.3,0,3.7,0s2.5.3,6,.8c3.5.6,5.7.9,6.5,1.1,2,.5,4.1,1,6.2,1.7.5.2.8.8,1,1.8.2,1,.2,1.9,0,2.8,0,.4-.5,2.9-1.4,7.5l-6.8,1.4c-.8,3.7-.8,10.4,0,19.9,2.4.6,4.4.9,6.1.9s2.3.5,3.4,1.4c.2.2.2,1.1,0,2.7-.2,1.6-.4,2.7-.6,3.4-.2.8-.4,1.7-.5,2.7-.2,1.8-1.1,3.1-2.6,3.8-1.2.5-2.4.9-3.7,1.2-1.3.3-2.4.4-3.2.4s-2.1,0-4-.1c-1.9,0-3.2-.1-4.1-.1-8.5-.2-14.9-.7-19.2-1.4-1.5-.2-2.5-1.5-2.9-3.7-.4-2.1-.6-3.3-.6-3.4s.1-1.3.4-3.5c0-.4.3-.8.6-1.2.4-.4.7-.7,1.1-.9.4-.2,2.4-.8,5.9-1.9v-22.7l-1.6-.5c-.1,0-.3-.1-.5-.2-.9-.3-1.5-.5-1.9-.8-.4-.2-.7-.6-1-1.2-.3-.6-.4-1.4-.3-2.5.2-2.5.6-5.6,1.2-9.3,0-.1.2-.9.7-2.5ZM320,620c1,.2,1.6-.3,1.9-1.4.3-1.1.3-2.4.2-3.8-.1-1.4,0-2.7.2-3.7.5-6.2.7-9.5.8-10.1,0-.7,0-1.2-.2-1.5-.2-.3-.5-.5-1.1-.5-.4,0-2.3-.4-5.8-1.1-1.2,4.9-1.7,11.1-1.5,18.7,0,.7.3,1.4.9,2.1.6.7,1.2,1.1,1.9,1.2,1,.2,1.9.3,2.7.3ZM346.8,619.7c-4.4-.1-6.2-3.1-5.5-8.8.2-2.1.5-3.7,1-4.9.5-1.2,1.3-2,2.5-2.4.4-.1,2.4-.4,6.1-1v-17.1c0-2.4-.1-5.9-.4-10.4,0-1.8.3-3.2.8-4,.5-.9,1.5-1.3,3-1.4,4-.2,7.4.7,10.2,2.5,1.7,1.1,2.5,2.9,2.3,5.2-.3,3.2-.6,8.8-.8,16.8-.7,20.7-1.2,33-1.3,37.1,0,1.1-.5,5.4-1.4,12.8-.2,2.3-1.2,3.3-2.9,3.1-.2,0-.7,0-1.7.2-.9.1-1.5.2-1.7.2-3.2.2-5.4-.6-6.6-2.2-1.2-1.7-1.8-4.4-1.9-8.2,0-2.5.1-7.6.4-15.3,0-.9-.1-1.5-.4-1.9-.2-.4-.7-.5-1.5-.4h-.4ZM382.2,586.3c-1.4,20.6-2.8,39.1-4.2,55.6-.2,2.7-1.2,4.9-3.2,6.7-1.9,1.7-3.9,2.1-5.8,1.2-.7-.3-1.1-1.2-1.4-2.7-.5-3.1-.8-6.2-.8-9.4s0-3,.3-5.2c.2-2.1.2-4.2.2-6.2,0-1.7,0-3.1,0-4.1s0-2.1,0-3.2c0-1.2,0-2,0-2.5,0-.5.1-1.7.3-3.6.1-1.9.3-3.5.3-4.8,0-1.3.2-3,.3-4.9.1-1.9.2-3.3.3-4.1,0-.8,0-1.9.1-3.2,0-1.3,0-2.6,0-3.8,0-1.2-.1-2.7-.2-4.4-.2-4.1-.3-6.8-.2-7.8.1-1.1.7-3.7,1.9-7.8.1-.4.7-.7,1.7-.8,3.2-.4,5.3-.5,6.3-.4.4,0,.9.4,1.3.9.5.6.8,1.1.9,1.6.2,1.3.9,5.6,1.9,13Z"/>
        <path class="cls-12" d="M411.8,645.7c-7.7-.1-14.1-2.8-19.3-8.1-1.8-1.8-3-4.8-3.6-9.1-.9-5.9-1.3-11.1-1.2-15.6,0-7.9,1.7-15.4,5.1-22.7.3-.7.6-1.1.8-1.3,4.7-4.7,7.6-7.5,8.8-8.5.7-.7,2-1.1,4-1.1,4-.9,7.9-.6,11.5.8,2.4,1,5.1,2.5,7.9,4.5,2.8,2,5.1,4,6.7,6.1.9,1.1,1.6,2.5,1.9,4,.8,3.8,1,7,.7,9.5-.5,6-1.5,12.6-2.8,19.8-1.5,8.4-5.4,14.6-11.8,18.6-3.9,2.4-6.8,3.5-8.6,3.1ZM421.5,608.6c-.1-.4-.3-1-.4-1.9-.1-.9-.3-1.6-.5-2.3-.2-.6-.4-1.1-.6-1.6-.9-1.4-2.1-2.4-3.5-3.2-1.5-.7-2.9-1-4.4-.7-2.5.5-4.4,2.2-5.4,5.2-.4,1.1-.7,2-1,2.9-.2.9-.4,1.8-.4,2.8s0,1.8,0,2.4c0,.6.1,1.5.4,2.9.2,1.4.4,2.4.5,3,0,.4,0,.9.1,1.8,0,.8.1,1.4.2,1.6,0,.2.1.6.2,1.2.1.6.2,1,.4,1.2.1.2.3.5.5.9.2.4.5.7.8,1,.3.3.7.6,1.1.8,1.4,1,2.7,1.5,4.1,1.5s2.2-.4,3.1-1.2c.9-.8,1.5-1.8,1.8-2.8.2-1,1.3-6.2,3.1-15.6ZM465.2,642.2c0,2-.4,3.7-1.2,4.9-.8,1.3-2,1.9-3.6,1.8-.4,0-.9,0-1.7,0-.8,0-1.4,0-1.9,0-.5,0-1.1,0-1.7,0s-1.2,0-1.7-.2c-.4-.1-.9-.3-1.4-.4-.5-.1-.9-.4-1.2-.7-.3-.3-.6-.6-.8-1-1.7-4.3-2.6-7.6-2.8-9.9-.1-2.6-.3-11.2-.4-25.9s-.3-23.2-.4-25.5c0-2-.3-5.3-.8-9.9l-.5-4.5c3.4-.2,5.2-.3,5.4-.3,1.4,0,3.4.2,6,.5,2.6.3,4.3.5,4.9.5,1.7.2,2.6,1.1,2.7,2.8,0,2,.3,6.3.6,13,.4,6.7.5,12,.4,15.7v38.8Z"/>
        <path class="cls-12" d="M478.3,581.4c.9-.7,1.6-1,2-1,.4,0,2.2,0,5.4,0v-.2c2.8.2,5.6.4,8.2.5,2.6.2,4.5.3,5.5.4,1,0,2.3.2,3.9.3,1.6.1,3.5.3,5.6.6,1.2.1,2.2.8,3.2,2.1.9,1.3,1.3,2.6,1.1,4-.1,1.5-.8,4.4-2,8.6-1.3,3.6-2.2,6.3-2.6,8-.5,1.4-.6,2.4-.3,3.2.3.8,1,1.3,2.2,1.6,1.7.4,5.2,1.2,10.5,2.4,1.7.4,2.3,1.4,1.7,3.2,0,.2-.5,1.8-1.4,4.6-.9,2.8-1.4,4.5-1.6,5-1.3,3.1-3.3,4.6-6,4.4-.3,0-.5,0-.6,0-.7.4-1.4.5-2,.5s-1.4,0-1.8-.2c-.4-.1-.8-.4-1.4-.8-.4-.4-.7-.6-.9-.8-.2-.1-.3-.3-.4-.4s-.3-.3-.5-.6c-.2-.3-.5-.6-.8-.9-1.7-1.8-2.7-2.9-3-3.2-1.4-1.3-2.8-1.2-4.3.2-1.3,1.3-2.5,2.7-3.5,4.3-.3.4-1.7,2.8-4.4,7.2-.9,1.4-2.3,2.4-4.2,3.1-1.9.6-3.9.6-6,0-4.3-1.3-6.1-5.3-5.4-11.9.1-1.1.8-2.1,2-3,.9-.7,2.8-2,5.4-3.8,2.7-1.8,5-3.5,6.9-5,2-1.5,3.5-2.9,4.6-4.1.6-.8,1.1-1.6,1.6-2.6.5-1,.9-2.1,1.1-3.3.2-1.2,0-2.3-.8-3.1-.8-.9-2.1-1.4-3.8-1.2-5.3.4-9.5-.7-12.6-3.4-1.1-.9-1.6-2.1-1.7-3.4-.1-1.3,0-4,.3-8.2,0-.2.2-.6.5-1.1.3-.5.5-.8.5-.8.1-.3,0-.7-.3-1.2ZM554,642.2c0,2-.4,3.7-1.2,4.9-.8,1.3-2,1.9-3.6,1.8-.4,0-.9,0-1.7,0-.8,0-1.4,0-1.9,0-.5,0-1.1,0-1.7,0s-1.2,0-1.7-.2c-.4-.1-.9-.3-1.4-.4-.5-.1-.9-.4-1.2-.7-.3-.3-.6-.6-.8-1-1.7-4.3-2.6-7.6-2.8-9.9-.1-2.6-.3-11.2-.4-25.9s-.3-23.2-.4-25.5c0-2-.3-5.3-.8-9.9l-.5-4.5c3.4-.2,5.2-.3,5.4-.3,1.4,0,3.4.2,6,.5,2.6.3,4.3.5,4.9.5,1.7.2,2.6,1.1,2.7,2.8,0,2,.3,6.3.6,13,.4,6.7.5,12,.4,15.7v38.8Z"/>
        <path class="cls-12" d="M654.8,606c.5,0,3.8.1,10,.4s9.4.4,9.6.5c.7,0,1.5.2,2.4.5s1.5.7,1.8,1c.4.5.5,1.5.4,2.9,0,1.4-.3,2.3-.8,2.8,0,.1-.2.3-.3.5-.1.2-.3.4-.6.5-.5.3-1.5.6-2.8,1-1.4.4-2.2.6-2.5.7-.6.1-4.4.3-11.3.5-6.9.2-10.8.5-11.6.7-.2,0-.4.6-.4,1.7,0,1.1,0,2.4,0,3.8,0,1.4,0,2.2,0,2.4.1.7.2,1.2.2,1.5s0,.4-.2.5c-1,1.5-2.9,2.3-5.6,2.4-2.7,0-4.7-.5-6.1-1.7-.6-.5-.9-.9-1.1-1.4-.1-.5-.2-1.4-.2-2.8,0-3.9-.5-5.9-1.5-6-.9-.1-4.5-.3-10.9-.4-6.4-.1-10.1-.2-11.2-.1-1.4.4-2.5.4-3.6.2-1-.2-1.7-.8-2.1-1.8-.9-2-1.2-4.2-.8-6.6.1-.6.6-1.2,1.5-1.8.9-.6,3-1.1,6.2-1.4,3.3-.4,5.6-.4,6.9-.2.6,0,2.1,0,4.4,0h11.1c10.9-.2,17.2-.2,18.8-.2ZM621.2,624.2c0,.2,0,.5,0,1.1,0,.6,0,.9,0,1.1v8.9h34.8c7.2,0,12.1,0,14.7,0,.5,0,.9.1,1.2.4.3.3.5.5.6.8.1.3.2.7.4,1.3,0,.2,0,.4,0,.4.1.6.2,1.2.2,1.9,0,2-.6,4.1-1.7,6.2-.3.6-1.1,1-2.3,1.2-.3,0-4.5.3-12.6.8-8.1.5-12.3.8-12.5.8-.4,0-.7,0-1,0-7.9,0-14.6.1-20.3.4-.3,0-1.2,0-2.8.1-1.5,0-2.5.1-2.8.1-4.1,0-6.4-1.3-6.7-3.8,0-1.1-.3-5.2-.7-12.4-.4-7.1-.6-10.7-.6-10.8h0c.7,0,1.6-.3,2.8-.8,1.1-.5,2-.8,2.7-.8,1.2,0,3,.4,5.5,1.2.7.2,1.1.7,1.1,1.3ZM614.5,571.9c.4,0,1-.2,2-.4.9-.2,1.8-.3,2.6-.4.8,0,1.5-.1,2.1-.1,6.3-.1,13.1,0,20.4.5,2.3.2,3.9.3,4.9.3.7,0,2.7.1,5.9.2,3.2,0,5,.1,5.4.1,1.5.1,3.9.5,6.9,1.2.9.2,1.5.5,1.8,1,.3.5.4,1.3.3,2.4-.3,2.2-.5,3.7-.7,4.4-.2.7-.5,1.6-1,2.4-.5.9-1.3,1.7-2.3,2.5-.8.7-2.5,1.7-5.2,3,6.2,4,9.8,6.3,10.8,6.8.6.4.9.7,1,.9,0,.2,0,.6-.4,1.2-.3.4-1.2,1.8-2.8,4.4-.6.8-1.7,1.4-3.3,1.8-1.6.4-3.2.4-4.7,0-.4,0-.8-.1-1.2-.3-.4-.1-.8-.3-1.3-.4s-.8-.3-1.1-.4c-.3-.1-.7-.3-1.2-.6-.5-.3-.9-.5-1.1-.6-.2-.1-.6-.3-1.1-.7-.5-.3-.9-.5-1-.6-.1,0-.5-.3-1.1-.7-.6-.4-.9-.6-1-.6-1.4-.7-2.4-1.2-3.1-1.5-.7-.3-1.7-.5-2.9-.5-1.3,0-2.6.3-3.9.8-3,1.4-6.6,3.3-10.8,5.5-.9.4-2.1.6-3.4.6s-2.5-.2-3.6-.5c-1.9-.3-3.4-1.2-4.4-2.6-1.1-1.4-1.6-3.2-1.6-5.3v-.8c8.2-2.6,12.8-4.1,14-4.4,3.4-1,6.9-2.2,10.4-3.6,2.3-.9,3.6-1.4,3.9-1.5,1.4-.5,2.7-1.7,3.9-3.6h-15.5c-1.9-.1-5.5-.2-10.8-.2h-.7c-.9,0-1.6,0-2.1,0-.4,0-.9-.1-1.5-.2-.5-.1-.9-.4-1.2-.7-.2-.4-.4-.8-.4-1.4,0-.4,0-1.8,0-4,0-2.3.1-3.5.1-3.6Z"/>
        <path class="cls-12" d="M691.9,635.5c-.1-3.1-.4-10.3-.9-21.5-.5-11.3-.8-19.6-.9-24.9v-.6c.1-1.4.2-2.4.3-3.1,0-.7.2-1.6.4-2.6.2-1,.6-1.8,1.1-2.3.5-.5,1.1-.9,1.9-1.1,1-.2,3.2-.2,6.6,0,1.5,0,3.1,0,5,0-.4,1.4-.5,6.2-.6,14.5,0,8.3-.4,13.9-1.1,16.7-.1.8,0,1.4.1,2,.2.6.6,1,1.2,1.2s1.2.5,1.7.6c.5.1,1.3.2,2.4.1,1.1,0,1.9-.1,2.4-.1.5,0,1.4-.1,2.5-.3,1.2-.1,1.9-.3,2.1-.3,1.5-.2,2.6-.2,3.3-.2-1.7-11.5-2.4-23-2-34.6.6.2,3,.6,7.1,1.3,4.1.7,6.8,1.1,7.8,1.2,1.4.2,2.5.7,3.5,1.7,1,.9,1.4,2.1,1.4,3.5,0,1.4-.1,4.7-.3,10-.1,5.3-.3,9.9-.4,13.6-.2,3.7-.4,6.9-.7,9.5-.1.8-.4,2.8-.9,6-.2,1.3-.7,3.4-1.6,6.4-.2.7-.4,1.3-.6,1.8-.2.6-.4.9-.5,1.2-.1.2-.4.6-.8,1.3-.4.7-.7,1.1-.8,1.3-.6.9-1.2,1.6-1.9,2-.7.5-1.6,1-2.9,1.5-1,.4-2.1.6-3.3.6-1.8,0-4.1.1-6.9.4-2.8.3-5.2.6-7.2.8-2,.2-4.3.3-6.8.1-2.5-.1-4.6-.6-6.4-1.3-2.1-.7-3.2-2.9-3.2-6.7ZM716.1,623.2c-2.7,0-4.5,0-5.6-.2-1.1-.1-2.1,0-3,.3-.9.3-1.4.9-1.5,1.7v1.6c0,.9.2,2.8.7,5.5,3.6,1.4,6.2,1.9,7.6,1.5,1.5-.4,2.2-1.5,2.2-3.3s-.1-4.2-.4-7.1ZM767.4,642.2c0,2-.4,3.7-1.2,4.9-.8,1.3-2,1.9-3.6,1.8-.4,0-.9,0-1.7,0-.8,0-1.4,0-1.9,0-.5,0-1.1,0-1.7,0s-1.2,0-1.7-.2c-.4-.1-.9-.3-1.4-.4-.5-.1-.9-.4-1.2-.7-.3-.3-.6-.6-.8-1-1.7-4.3-2.6-7.6-2.8-9.9-.1-2.6-.3-11.2-.4-25.9s-.3-23.2-.4-25.5c0-2-.3-5.3-.8-9.9l-.5-4.5c3.4-.2,5.2-.3,5.4-.3,1.4,0,3.4.2,6,.5,2.6.3,4.3.5,4.9.5,1.7.2,2.6,1.1,2.7,2.8,0,2,.3,6.3.6,13,.4,6.7.5,12,.4,15.7v38.8Z"/>
        <path class="cls-12" d="M827.7,651.7c-.4,0-2.7.1-6.7.3-4.1.2-6.3.3-6.7.3-1.7,0-3.1-.1-4.4-.4-.3,0-.7,0-1.2-.2-.5,0-1.2-.2-2.2-.4-1-.2-1.6-.3-1.9-.3-.3,0-.7-.1-1.4-.3-.7-.1-1.2-.3-1.6-.4-.4-.1-.8-.3-1.4-.5-.6-.2-1.2-.5-2-.8-2-.9-3.8-2.3-5.6-4.2-1.8-1.9-2.7-3.7-2.7-5.5,0-4.1.6-7.2,1.8-9.2,3.3-5.6,10.1-8.9,20.4-10l1.4-.2c-.2-1-.7-1.6-1.4-1.7-.9-.1-4.5-.3-10.9-.4-6.4-.1-10.1-.2-11.2-.1-1.4.4-2.5.4-3.6.2-1-.2-1.7-.8-2.1-1.8-.9-2-1.2-4.2-.8-6.6.1-.6.6-1.2,1.5-1.8.9-.6,3-1.1,6.2-1.4,3.3-.4,5.6-.4,6.9-.2.6,0,2.1,0,4.4,0h11.1c10.9-.2,17.2-.2,18.8-.2.5,0,3.8.1,10,.4s9.4.4,9.6.5c.7,0,1.5.2,2.4.5s1.5.7,1.8,1.1c.4.5.5,1.4.4,2.8,0,1.4-.3,2.4-.8,2.9,0,0-.2.2-.3.4-.1.2-.3.4-.6.6-.5.2-1.5.5-2.8.9-1.4.4-2.2.6-2.5.7-.6.1-4.4.3-11.3.5-6.9.2-10.8.5-11.6.7-.3.1-.4.9-.4,2.5,2.1.2,3.8.4,5.2.6,1.4.2,3,.5,4.9.8,1.9.4,3.5.8,4.7,1.3,1.2.5,2.5,1.1,3.7,1.8,1.2.7,2.2,1.6,2.9,2.7s1.2,2.3,1.3,3.6c.2,1.1.3,2,.3,2.9,0,4-1.6,7.1-4.7,9.5-.2.2-.7.5-1.4,1.1-.7.5-1.1.9-1.3,1-.2.1-.6.4-1.1.8-.5.4-.9.7-1.2.8-.3.1-.7.4-1.2.7-.5.3-.9.5-1.3.7-.4.2-.8.4-1.4.6-.5.2-1.1.5-1.7.7-2.1.8-4.3,1.3-6.4,1.3ZM792.3,571.9c.4,0,1-.2,2-.4.9-.2,1.8-.3,2.6-.4.8,0,1.5-.1,2.1-.1,6.3-.1,13.1,0,20.4.6,2.3.1,3.9.2,4.9.2.7,0,2.7.1,5.9.2,3.2,0,5,.1,5.4.1,1.5.1,3.9.5,6.9,1.2.9.2,1.5.5,1.8,1,.3.5.4,1.3.3,2.4-.3,2.2-.5,3.7-.7,4.4-.2.7-.5,1.6-1,2.4-.5.9-1.3,1.7-2.3,2.5-.8.7-2.5,1.7-5.2,3,6.2,4,9.8,6.3,10.8,6.8.6.4.9.7,1,.9,0,.2,0,.6-.4,1.2-.3.4-1.2,1.8-2.8,4.4-.6.8-1.7,1.4-3.3,1.8-1.6.4-3.2.4-4.7,0-.4,0-.8-.1-1.2-.3-.4-.1-.8-.3-1.3-.4s-.8-.3-1.1-.4c-.3-.1-.7-.3-1.2-.6-.5-.3-.9-.5-1.1-.6-.2-.1-.6-.3-1.1-.7-.5-.3-.9-.5-1-.6-.1,0-.5-.3-1.1-.7-.6-.4-.9-.6-1-.6-1.4-.7-2.4-1.2-3.1-1.5-.7-.3-1.7-.5-2.9-.5-1.3,0-2.6.3-3.9.8-3,1.4-6.6,3.3-10.8,5.5-.9.4-2.1.6-3.4.6s-2.5-.2-3.6-.5c-1.9-.3-3.4-1.2-4.4-2.6-1.1-1.4-1.6-3.2-1.6-5.3v-.8c8.2-2.6,12.8-4.1,14-4.4,3.4-1,6.9-2.2,10.4-3.6,2.3-.9,3.6-1.4,3.9-1.5,1.4-.5,2.7-1.7,3.9-3.6h-15.5c-1.9-.1-5.5-.2-10.8-.2h-.7c-.9,0-1.6,0-2.1,0-.4,0-.9-.1-1.5-.2-.5-.1-.9-.4-1.2-.7-.2-.4-.4-.8-.4-1.4,0-.4,0-1.8,0-4,0-2.3.1-3.5.1-3.6ZM829.3,640.7c1.5,0,2.8-.6,3.8-1.8,1-1.2,1.5-2.7,1.5-4.3,0-2.5-1.4-4-4.1-4.6-2.9-.6-8.7-.9-17.3-.9h0c-.8,0-1.5.1-2.1.4-.6.3-1.1.7-1.5,1.3-.4.6-.7,1.2-.8,1.6-.2.5-.4,1.2-.6,2.1-.1.4-.2.8-.2,1.2,0,.8.2,1.4.6,2,.4.5,1,.9,1.8,1.2.8.3,1.5.4,2.1.5.6,0,1.5.2,2.6.3.2,0,.4,0,.5,0,1.4.1,3.6.3,6.8.4,3.1.2,5.4.3,6.8.4h.3Z"/>
        <path class="cls-8" d="M931.2,615.2c-6.6.2-12.7-1.3-18.2-4.4-3.4-1.9-5.6-5-6.8-9.4-1-4.2-1.3-7.7-1-10.4.3-2.7,1.3-5.3,3.1-7.6,2.3-3.1,4.2-5.4,5.9-6.9,2.5-2.3,5.8-3.2,9.7-2.8,5.1.7,10.5,2.7,16.2,6.1,3.2,1.9,5.2,4.8,5.9,8.7,1,5.6,1.1,10.4.4,14.4-.8,4.1-2.5,7.2-5.3,9.6-2.5,2.1-5.8,3.1-9.7,2.8ZM955.8,626.9v-1c0-2.7.4-4.7,1.2-6,.2-.4.5-.7.9-.8.4,0,1-.1,1.8-.1,1.1-.1,2-.2,2.7-.3.7,0,1.5-.2,2.7-.3,2.8.8,4.6,1.5,5.2,2.1.6.7.9,2.2.9,4.7,0,4.2-.2,9.5-.5,15.7-.1,2.4-1.2,4.5-3.2,6.2-2,1.7-4.4,2.7-7.1,2.9-.7,0-3.1.4-7.2.9-4.2.6-6.8.9-7.8.9-1.1,0-2.2,0-3.5,0s-5.2-.1-10.8-.4c-1.7-.1-4-.4-7-1-3.9-.8-6.4-3.1-7.6-7.1-.9-3.1-1.4-6.3-1.4-9.8s.5-7.9,1.6-13.2c.1-.5.3-.9.6-1.2.3-.3.8-.5,1.5-.6.7,0,1.2-.1,1.6-.2.4,0,1,0,2,0h.8c1.1,0,2,0,2.6.1.6,0,1.1.4,1.6.8.5.5.7,1.2.7,2.1v9.2h9.4c2.4,0,4.6,0,6.4,0,.4,0,1.9,0,4.4-.2,2.5-.1,4-.2,4.4-.2,2.1-.1,3.2-1.2,3.2-3.3ZM921.5,596.2c1.1,3.6,1.8,5.5,2,6,.2.3.5.7.9,1.1.4.4.8.6,1.1.5,3.1-.3,5.3-1.4,6.6-3.2,1.3-1.8,1.2-4.3-.2-7.3-1.6-3.2-4.1-4.3-7.5-3.3-1.9.6-2.9,2.7-3,6.2ZM950,638.6c-.8,0-1.9,0-3.3,0-1.5,0-2.5,0-3.2,0-1.4,0-2.7,0-3.9,0-2,0-4,.2-6,.5-.3,0-.7.2-1.1.5-.4.3-.6.6-.6.8.3,1.6,1.5,2.4,3.5,2.4s1.2,0,2.4-.2c1.2-.1,2-.2,2.4-.2.6,0,1.4,0,2.4.2,1,.1,1.8.2,2.4.2,1.7,0,3.9-.3,6.7-.9,1.5-.3,2.2-1.1,2.2-2.3s0-.5,0-.9l-.5-.3h-3.1ZM960.9,600.4c0-.5,0-1.4.2-2.6.1-1.2.2-2.1.2-2.7.2-1.8.3-5.7.4-11.7v-9.5c0-.9.5-1.7,1.6-2.1,2.3-1,7.4-1.6,15.3-1.7,0,0,.3,0,.7.3.1,1.9.3,4.3.5,7.1.2,2.8.3,4.8.4,5.9,0,1.1,0,2.9,0,5.3,0,2.4-.3,5.4-.6,8.9,0,.6-.3,2.4-.6,5.6s-.6,5-.6,5.6c-.2,1.4-1,2.1-2.4,2.1-.7,0-2.7,0-6,0s-5.6,0-6.6,0c-1.7,0-2.5-2.5-2.5-7.6s0-.5,0-1.3c0-.7,0-1.2,0-1.4Z"/>
        <path class="cls-8" d="M1008.4,620.7c4.4.4,7.7.6,9.9.6,4.4.3,7.8.2,10-.3,2.2-.5,4.5.2,6.9,2,.3.2.5.6.8,1.2.2.5.3,1,.1,1.4-.4,2.7-1.1,5-2.1,7.1-.5,1.2-1,2.1-1.3,2.8-1.3,2.8-3.4,4.4-6.4,4.6-1.1.1-3.6.5-7.7,1-4.1.6-6.7.9-7.8.9-1.5.1-4.3.1-8.2,0-2.4-.2-4.7-.6-7-1.2-.6-.1-1.1-.4-1.5-.7-.4-.4-.7-.7-1-1.1-.2-.4-.4-.9-.5-1.6-.1-.7-.2-1.3-.2-1.8,0-.5,0-1.2,0-2.2,0-1,0-1.8,0-2.3-.3-5.8-.4-9.8-.4-12-.2-8.7-.2-17.4,0-26,0-1.7.3-3.5,1-5.6.7-2,1.5-3.4,2.4-4,1.6-.9,4.5-1.3,8.7-1.1.1,0,.4.1.8.3.4.2.7.3.7.4.7.3,1.2.4,1.4.4,1.1,0,1.8.1,2.2.5.4.4.7,1.1.9,2.3.4,1.3.5,2.8.5,4.4,0,2.3-.3,5.1-.8,8.4,0,.7-.1,1.2-.2,1.6,0,.4-.1.9-.2,1.4,0,.5-.1.9-.1,1.1,0,.2,0,.6,0,1.1,0,.5,0,.9,0,1.1,0,.2,0,.7,0,1.3,0,.7,0,1.2,0,1.4s0,.9,0,1.9c0,1,0,1.7,0,2.3-.1,4.6-.2,7.4-.3,8.4ZM1069.6,642.2c0,2-.4,3.7-1.2,4.9-.8,1.3-2,1.9-3.6,1.8-.4,0-.9,0-1.7,0-.8,0-1.4,0-1.9,0-.5,0-1.1,0-1.7,0s-1.2,0-1.7-.2c-.4-.1-.9-.3-1.4-.4-.5-.1-.9-.4-1.2-.7-.3-.3-.6-.6-.8-1-1.7-4.3-2.6-7.6-2.8-9.9-.1-2.6-.3-11.2-.4-25.9s-.3-23.2-.4-25.5c0-2-.3-5.3-.8-9.9l-.5-4.5c3.4-.2,5.2-.3,5.4-.3,1.4,0,3.4.2,6,.5,2.6.3,4.3.5,4.9.5,1.7.2,2.6,1.1,2.7,2.8,0,2,.3,6.3.6,13,.4,6.7.5,12,.4,15.7v38.8Z"/>
        <path class="cls-8" d="M1126.3,626.6c.3,0,.6.3,1,.9.4.6.6,1.1.6,1.5-.2,3.2-.4,5.2-.8,6.1-.4.9-1.7,2.5-3.9,5-.5.5-1.2.8-2,.9-.4,0-1.6,0-3.7.2-2.1.1-4.1.3-6,.4-1.9.1-3.1.3-3.7.3-5.9.8-12.4.2-19.7-1.8-1.5-.4-2.7-1-3.5-1.9s-1.4-2-1.7-3.6c-1.2-5.2-1.7-11.7-1.5-19.4,0-2.9,0-6.1,0-9.6-.2-5.7.4-11.6,1.7-17.4,0-.2.4-2.6,1-7,11.8.5,18.2.7,19.3.7s2.3.1,5.6.4c3.3.2,5.4.4,6.1.4,2.3,0,5.3,0,8.9-.4,2.8-.3,4.7.7,5.8,2.9,1.1,2.2,1.1,4.8.1,7.8-.3.9-.5,1.7-.5,2.1-.2,1.9-1.3,2.9-3.3,2.9-4.6.1-8.2.1-10.8,0-1.3,0-5.7-.2-13.3-.6l-1.6-.2c-1.8-.4-3,.2-3.6,1.7-.6,1.5-.9,2.4-.9,2.8,0,9.7.2,16.8.4,21.2,0,.2.2.5.5.8.4.3.7.4.9.4.5,0,1.8.1,3.9.3,2.1.1,3.3.2,3.7.3,10,.8,17,1.4,21.2,1.8ZM1153.8,625.9c0,.6,0,2.9.1,7,0,4.1.1,6.4.1,7,0,2.4-.6,4-2,4.8-3.6,2-6.1,2.9-7.7,2.8-2.9,0-4.9-.5-5.9-1.6-1-1-1.6-3-1.8-5.9-.4-8.3-.6-14-.6-17.1,0-4.4.3-18.1.9-41.2.1-1.3.7-4,1.7-8,0-.3.1-.5.3-.8.1-.2.3-.4.5-.5.2-.1.4-.2.5-.2.1,0,.4,0,.8-.2.4,0,.7-.2,1-.2,1.5-.4,2.7-.7,3.7-.9,2-.4,4-.2,5.9.7,1.7.8,2.7,2.4,2.8,4.8,0,1,.1,4.6.2,10.7,0,6.1.2,10,.4,11.5.2,1.2,1.4,2.9,3.6,5.2,1.7,1.8,3,3.1,3.9,3.9,1.4,1.4,2.1,3.2,2,5.2-.1,1.4-.5,3.1-1.1,5.2-.5,2.1-2.4,3.2-5.6,3.3-1.7,0-2.8.3-3.2.8-.4.5-.5,1.7-.5,3.6Z"/>
        <path class="cls-8" d="M1190,652.2c-6.4.9-12,1.6-16.8,2-2.4.4-3.8-.6-4.2-2.8-.5-3.1-.9-7-1.2-11.5,0-.8,0-2.5.3-5.2.2-1.7,1.4-2.6,3.6-2.8,4.4-.5,8.9-1,13.5-1.3,2.2-.2,3.4,1,3.7,3.5.4,3.4.7,7.7,1.2,13.1v5.1Z"/>
      </g>
      <g>
        <path class="cls-4" d="M138.4,743.3v-5.9h7.2v-22.9h-6.8v-5.9h13.6v28.9h6.8v5.9h-20.8Z"/>
        <path class="cls-4" d="M188.8,732.7c0,2-.3,3.7-1,5.2-.6,1.5-1.5,2.6-2.7,3.6s-2.4,1.6-4,2.1c-1.5.5-3.1.7-4.8.7s-3.3-.2-4.8-.7c-1.5-.4-2.8-1.1-4-2.1s-2-2.1-2.7-3.6c-.6-1.5-1-3.2-1-5.2v-13.7c0-2,.3-3.7,1-5.2s1.5-2.6,2.7-3.6c1.1-.9,2.4-1.6,4-2.1,1.5-.5,3.1-.7,4.8-.7s3.3.2,4.8.7,2.8,1.1,4,2.1c1.1.9,2,2.1,2.7,3.6.6,1.5,1,3.2,1,5.2v13.7ZM181.9,719.4c0-1-.1-1.9-.4-2.6-.3-.7-.7-1.3-1.2-1.8-.5-.5-1.1-.8-1.8-1.1-.7-.2-1.4-.3-2.2-.3s-1.5.1-2.2.3c-.7.2-1.3.6-1.8,1.1-.5.5-.9,1.1-1.2,1.8-.3.7-.4,1.6-.4,2.6v13c0,1,.1,1.9.4,2.6.3.7.7,1.3,1.2,1.8.5.5,1.1.8,1.8,1.1.7.2,1.4.3,2.2.3s1.5-.1,2.2-.3c.7-.2,1.3-.6,1.8-1.1.5-.5.9-1.1,1.2-1.8.3-.7.4-1.6.4-2.6v-13Z"/>
        <path class="cls-4" d="M202.7,729.8c-.7.2-1.1.2-1.4,0-.3-.1-.4-.5-.4-1.1v-4h-9.9v-4.6h27.8v4.6h-10.9v3.7l-5.1,1.3ZM217.4,712.8c0,.8-.1,1.6-.4,2.4-.3.8-.7,1.4-1.3,2-.6.6-1.4,1.1-2.3,1.4-.9.4-2.1.5-3.5.5h-8.8c-1.4,0-2.5-.2-3.5-.5-1-.4-1.7-.8-2.4-1.4-.6-.6-1.1-1.3-1.3-2-.3-.8-.4-1.6-.4-2.4s.1-1.6.4-2.4c.3-.8.7-1.4,1.3-2s1.4-1.1,2.3-1.4c.9-.4,2.1-.5,3.5-.5h8.9c1.4,0,2.5.2,3.5.5.9.4,1.7.8,2.3,1.4.6.6,1,1.3,1.3,2,.3.8.4,1.6.4,2.4ZM198.2,746.9v-10.3h22v-1.2h-22v-4.7h29v10.1h-22v1.4h22.7v4.7h-29.7ZM210.5,712.8c0-.5-.2-.9-.5-1.1-.3-.2-.7-.3-1.2-.3h-6.7c-.5,0-.9.1-1.2.3-.3.2-.5.6-.5,1.1s.2.9.5,1.1c.3.2.7.3,1.2.3h6.7c.5,0,.9-.1,1.2-.3.3-.2.5-.6.5-1.1ZM222.1,729.8c-.4,0-.7,0-1,0s-.4,0-.6-.2h-8.3v-4.2h8.1v-19.7h6.8v23.2l-5.1.8Z"/>
        <path class="cls-4" d="M241.6,742.8v-5.9h16.4v-6.8h6.9v6.8h16.4v5.9h-39.8ZM274.4,732.3l-12.9-8.6-12.9,8.6-4-4.9,13.4-8.9v-2.7h-11.6v-5.8h11.7v-4.2h7v4.2h11.7v5.8h-11.6v2.7l13.4,8.9-4,4.9Z"/>
        <path d="M323.5,728.1c-.2,0-.5,0-.7,0-.2-.1-.3-.3-.3-.5v-8.7h-6.6c0,1.4-.4,2.6-1,3.6s-1.3,1.8-2.3,2.4c-.9.6-2,1.1-3.2,1.4-1.2.3-2.5.4-3.9.4s-2.7-.2-4-.5c-1.3-.3-2.4-.8-3.3-1.5-.9-.7-1.7-1.6-2.2-2.6-.6-1.1-.8-2.4-.8-3.9v-2.6c0-1.5.3-2.8.8-3.9.6-1.1,1.3-2,2.2-2.6.9-.7,2-1.2,3.3-1.5,1.3-.3,2.6-.5,4-.5s2.6.1,3.8.4c1.2.3,2.3.7,3.2,1.3.9.6,1.7,1.4,2.3,2.3s1,2.1,1.1,3.4h6.7v-8.3h4.9v20.6l-3.9,1.3ZM311,716c0-1.6-.5-2.8-1.6-3.6-1-.7-2.4-1.1-4-1.1s-2.9.4-4,1.1c-1,.8-1.6,1.9-1.6,3.6v1.7c0,1.6.5,2.8,1.6,3.6,1,.8,2.4,1.1,4,1.1s2.9-.4,4-1.1,1.6-1.9,1.6-3.6v-1.7ZM300.8,746.3v-16.9h4.9v4.2h16.8v-4.2h4.9v16.9h-26.6ZM322.5,737.7h-16.8v4.6h16.8v-4.6Z"/>
        <path d="M352.8,736.5h-16.2v-27.2h14.7v4.1h-9.9v18.9h11.4v4.1ZM356.7,745.2c-.2,0-.5,0-.7,0-.2-.1-.3-.3-.3-.5v-20.4h-7.7v-4.2h7.7v-13.1h4.8v37l-3.8,1.3ZM365.4,747c-.2,0-.5,0-.7,0-.2-.1-.3-.3-.3-.5v-40.2h4.8v39.5l-3.8,1.3Z"/>
        <path d="M397.8,728.3c0,1.7-.3,3.1-.8,4.3-.5,1.2-1.2,2.2-2.2,2.9-.9.8-2,1.3-3.2,1.7-1.2.4-2.5.5-3.9.5s-2.7-.2-3.9-.5c-1.2-.4-2.3-.9-3.2-1.7-.9-.7-1.6-1.7-2.2-2.9-.5-1.2-.8-2.6-.8-4.3v-10.4c0-1.6.3-3.1.8-4.3.5-1.2,1.2-2.2,2.2-2.9.9-.7,2-1.3,3.2-1.7s2.5-.5,3.9-.5,2.7.2,3.9.5c1.2.4,2.3.9,3.2,1.7.9.8,1.6,1.7,2.2,2.9.5,1.2.8,2.6.8,4.3v10.4ZM392.9,717.9c0-1.8-.5-3.2-1.5-4s-2.2-1.3-3.7-1.3-2.7.4-3.7,1.3c-1,.8-1.5,2.2-1.5,4v10.3c0,1.8.5,3.2,1.5,4,1,.8,2.2,1.3,3.7,1.3s2.7-.4,3.7-1.3c1-.8,1.5-2.2,1.5-4v-10.3ZM405.5,747c-.2,0-.5,0-.7,0-.2-.1-.3-.3-.3-.5v-40.2h4.9v39.5l-3.9,1.3Z"/>
        <path d="M416.6,741.9v-4.2h37.8v4.2h-37.8ZM426.7,718.4h22.5v4h-22.5v5.6h23.2v4.1h-28.1v-23.1h27.7v4.1h-22.7v5.3Z"/>
        <path d="M491.7,720.2h-8.1v3.1h11.1v4.1h-27.5v-4.1h11.5v-3.1h-8.3v-12.4h20.9v4h-16.1v4.3h16.5v4ZM474.3,746.4v-10.4h22v-2.7h-22v-3.8h27v10.2h-22v3h22.7v3.8h-27.7ZM497.4,728.1c-.2,0-.5,0-.7,0-.2-.1-.3-.3-.3-.5v-21.3h4.9v20.6l-3.9,1.3Z"/>
        <path d="M541.4,745.2c-.2,0-.5,0-.7,0s-.3-.3-.3-.5v-13.5h-3.8c-.2,1.2-.5,2.2-.9,3.1-.5.9-1.1,1.6-1.9,2.1s-1.6.9-2.6,1.2-2,.4-3.1.4-2.3-.1-3.4-.4-1.9-.8-2.7-1.4c-.8-.7-1.4-1.5-1.8-2.5-.5-1-.7-2.2-.7-3.7v-13.3c0-1.4.2-2.7.7-3.7.4-1,1.1-1.8,1.8-2.5.8-.7,1.7-1.1,2.7-1.4s2.2-.5,3.4-.5,2,.1,2.9.3c.9.2,1.7.6,2.5,1.1s1.4,1.1,1.9,1.8c.5.7.9,1.6,1.1,2.6h3.9v-7.4h4.8v37l-3.8,1.3ZM532,716.6c0-1.4-.4-2.3-1.1-3-.7-.6-1.6-.9-2.7-.9s-2,.3-2.7.9-1.1,1.6-1.1,3v13.1c0,1.3.4,2.3,1.1,3s1.6.9,2.7.9,2-.3,2.7-.9c.7-.6,1.1-1.6,1.1-3v-13.1ZM536.8,726.9h3.7v-8.4h-3.7v8.4ZM548.8,747c-.2,0-.5,0-.7,0-.2-.1-.3-.3-.3-.5v-40.2h4.8v39.5l-3.8,1.3Z"/>
        <path d="M579.8,727.6l-8.3-7.7-8.7,8.1-3.3-3.1,9.5-8.8v-4h-8.2v-4.1h21.1v4.1h-7.9v4l9.1,8.3-3.3,3.1ZM593.5,738.2c0,1-.2,2-.5,2.9-.4,1-.9,1.9-1.7,2.7-.8.8-1.8,1.4-3.1,1.9s-2.8.7-4.6.7h-8.5c-1.8,0-3.3-.2-4.6-.7-1.3-.5-2.3-1.1-3.1-1.9-.8-.8-1.4-1.7-1.7-2.7s-.5-2-.5-2.9.2-2,.5-2.9.9-1.9,1.7-2.7,1.8-1.4,3.1-1.9c1.3-.5,2.8-.7,4.6-.7h8.5c1.8,0,3.3.2,4.6.7s2.3,1.1,3.1,1.9,1.4,1.7,1.7,2.7c.4,1,.5,2,.5,2.9ZM588.6,738.2c0-1.3-.4-2.3-1.2-3s-1.9-1.1-3.4-1.1h-9.3c-1.5,0-2.6.4-3.4,1.1-.8.7-1.2,1.7-1.2,3s.4,2.3,1.2,3c.8.7,1.9,1.1,3.4,1.1h9.3c1.5,0,2.6-.4,3.4-1.1.8-.7,1.2-1.7,1.2-3ZM589.1,729.4c-.2,0-.5,0-.7,0-.2-.1-.3-.3-.3-.5v-10.1h-7.4v-4.2h7.4v-8.3h4.9v21.9l-3.9,1.3Z"/>
        <path d="M622.7,718c0,1.5-.3,2.8-.8,3.9-.6,1.1-1.3,2-2.2,2.6-.9.7-2,1.2-3.3,1.5-1.3.3-2.6.5-4,.5s-2.7-.2-4-.5c-1.3-.3-2.4-.8-3.3-1.5-.9-.7-1.7-1.6-2.2-2.6-.6-1.1-.8-2.4-.8-3.9v-2.4c0-1.5.3-2.8.8-3.9.6-1.1,1.3-2,2.2-2.6s2-1.2,3.3-1.5c1.3-.3,2.6-.5,4-.5s2.7.2,4,.5c1.3.3,2.4.8,3.3,1.5s1.7,1.6,2.2,2.6c.6,1.1.8,2.4.8,3.9v2.4ZM617.9,716c0-1.6-.5-2.8-1.6-3.6-1-.7-2.4-1.1-4-1.1s-2.9.4-4,1.1c-1,.8-1.6,1.9-1.6,3.6v1.5c0,1.6.5,2.8,1.6,3.6s2.4,1.1,4,1.1,2.9-.4,4-1.1,1.6-1.9,1.6-3.6v-1.5ZM607.6,746.3v-16.9h4.9v4.2h16.8v-4.2h4.9v16.9h-26.5ZM629.3,737.7h-16.8v4.6h16.8v-4.6ZM630.3,728.1c-.2,0-.5,0-.7,0-.2-.1-.3-.3-.3-.5v-21.3h4.9v20.6l-3.9,1.3Z"/>
        <path d="M644.9,735.9v-27h4.9v22.9h17.2v4.1h-22.2ZM671.2,747c-.2,0-.5,0-.7,0-.2-.1-.3-.3-.3-.5v-40.2h4.9v39.5l-3.9,1.3Z"/>
        <path d="M684.4,736.2v-26.8h18.7v4.1h-13.9v18.5h17.6v4.1h-22.5ZM711,747c-.2,0-.5,0-.7,0-.2-.1-.3-.3-.3-.5v-40.2h4.9v14.2h6.5v4.2h-6.5v21l-3.9,1.3Z"/>
        <path d="M724.4,744.6v-5.4h5.4v5.4h-5.4Z"/>
        <path d="M744.5,742.4v-4.2h16.4v-8.5h5v8.5h16.4v4.2h-37.8ZM776.4,731.3l-13-9.9-13,9.9-3-3.2,13.5-10.3v-4.5h-11.6v-4.1h28.2v4.1h-11.6v4.5l13.5,10.3-3,3.2Z"/>
        <path d="M785.7,726.2v-4.1h28v-10.3h-23.5v-4.1h28.4v14.5h4.9v4.1h-37.8ZM790.6,746.2v-15.3h27.9v15.3h-27.9ZM813.6,735h-18.2v7.1h18.2v-7.1Z"/>
        <path d="M828.4,727.8v-19.8h20.1v19.8h-20.1ZM843.7,712.1h-10.4v11.5h10.4v-11.5ZM833.8,745.9v-13.5h5v9.4h21.6v4.1h-26.5ZM855.7,735.7c-.2,0-.5,0-.7,0-.2-.1-.3-.3-.3-.5v-28.9h4.9v9.3h6.3v4.2h-6.3v14.7l-3.9,1.3Z"/>
        <path d="M894.8,738.6c-.2,0-.5,0-.7,0-.2-.1-.3-.3-.3-.5v-24.5h-14.4v-4.1h19.3v27.9l-3.9,1.3ZM907.5,747c-.2,0-.5,0-.7,0-.2-.1-.3-.3-.3-.5v-40.2h4.9v39.5l-3.9,1.3Z"/>
        <path d="M920.7,736.2v-26.8h18.7v4.1h-13.9v18.5h17.6v4.1h-22.5ZM947.2,747c-.2,0-.5,0-.7,0-.2-.1-.3-.3-.3-.5v-40.2h4.9v14.2h6.5v4.2h-6.5v21l-3.9,1.3Z"/>
        <path d="M962.1,737.9v-16.8h13.5v-7.8h-13.5v-4.1h18.5v15.9h-13.5v8.7h18.1v4.1h-23.1ZM989.7,747c-.2,0-.5,0-.7,0-.2-.1-.3-.3-.3-.5v-17.5h-6.4v-4.2h6.4v-6.6h-6.4v-4.2h6.4v-7.7h4.9v39.5l-3.9,1.3Z"/>
        <path d="M1027.6,747c-.2,0-.5,0-.7,0-.2-.1-.3-.3-.3-.5v-12.8h-16.4v-4.2h37.8v4.2h-16.4v12.1l-4,1.3ZM1042.2,726.6l-13.1-7.2-13.1,7.2-2.5-3.6,13.1-7.2v-3h-11.5v-4.1h27.9v4.1h-11.5v3l13.1,7.2-2.5,3.6Z"/>
        <path d="M1068.1,737l-6.4-11.7-6.8,12.2-4-2,8.3-14.9v-12h4.9v12l8,14.4-4,2ZM1074.3,745.2c-.2,0-.5,0-.7,0s-.3-.3-.3-.5v-22.6h-5.7v-4.2h5.7v-10.9h4.8v37l-3.8,1.3ZM1082.4,747c-.2,0-.5,0-.7,0-.2-.1-.3-.3-.3-.5v-40.2h4.8v39.5l-3.8,1.3Z"/>
        <path d="M1092.5,742.4v-4.2h9.5v-7h5v7h9v-7h5v7h9.4v4.2h-37.8ZM1126,719.3c0,1.5-.2,2.9-.7,4.2-.5,1.3-1.2,2.5-2.1,3.4-1,1-2.2,1.8-3.7,2.3-1.5.6-3.3.9-5.5.9h-5.3c-2.1,0-4-.3-5.5-.9-1.5-.6-2.8-1.3-3.7-2.3-1-1-1.7-2.1-2.1-3.4-.5-1.3-.7-2.7-.7-4.2s.2-2.9.7-4.2,1.2-2.5,2.1-3.4c1-1,2.2-1.8,3.7-2.3s3.3-.9,5.5-.9h5.3c2.1,0,4,.3,5.5.9s2.8,1.3,3.7,2.3c1,1,1.7,2.1,2.1,3.4.4,1.3.7,2.7.7,4.2ZM1121,719.3c0-2-.6-3.7-1.7-4.9-1.1-1.2-2.9-1.8-5.4-1.8h-5.1c-2.5,0-4.3.6-5.4,1.8-1.1,1.2-1.7,2.8-1.7,4.9s.6,3.7,1.7,4.9c1.1,1.2,2.9,1.8,5.4,1.8h5.1c2.5,0,4.3-.6,5.4-1.8,1.1-1.2,1.7-2.8,1.7-4.9Z"/>
        <path d="M1134.6,744.6v-5.4h5.4v5.4h-5.4Z"/>
        <path d="M549.1,780.9c-.2,0-.5,0-.7,0-.2-.1-.3-.3-.3-.5v-14.1h-15v-4.1h19.8v17.6l-3.9,1.3ZM538.7,800.2v-15.8h26.1v15.8h-26.1ZM560,788.5h-16.4v7.5h16.4v-7.5ZM560.9,783c-.2,0-.5,0-.7,0s-.3-.3-.3-.5v-22.2h4.9v8.6h6.3v4.2h-6.3v8.6l-3.9,1.3Z"/>
        <path d="M594.5,790.4l-9.3-12.5-9.7,13-3.7-2.5,10.9-14.5v-11.4h5v11.4l10.5,14-3.7,2.5ZM601.9,801c-.2,0-.5,0-.7,0-.2-.1-.3-.3-.3-.5v-40.2h4.9v14.2h6.5v4.2h-6.5v21l-3.9,1.3Z"/>
        <path d="M614.9,767.4v-4.1h9.2v-3.5h5v3.5h8.8v4.1h-23ZM637.3,775.7c0,.8-.1,1.6-.4,2.5-.3.8-.8,1.6-1.4,2.2-.7.6-1.5,1.2-2.5,1.6-1,.4-2.3.6-3.8.6h-5c-1.5,0-2.8-.2-3.8-.6s-1.9-1-2.5-1.6c-.7-.6-1.1-1.4-1.4-2.2-.3-.8-.4-1.6-.4-2.5s.1-1.6.4-2.5c.3-.8.8-1.6,1.4-2.2.7-.6,1.5-1.2,2.5-1.6s2.3-.6,3.8-.6h5c1.5,0,2.8.2,3.8.6,1,.4,1.9,1,2.5,1.6.7.6,1.1,1.4,1.4,2.2.3.8.4,1.6.4,2.5ZM632.3,775.7c0-.9-.3-1.6-.9-2.1-.6-.5-1.4-.7-2.4-.7h-5c-1.1,0-1.9.2-2.4.7s-.9,1.1-.9,2.1.3,1.6.9,2.1c.6.5,1.4.7,2.4.7h5c1,0,1.9-.2,2.4-.7.6-.4.9-1.1.9-2.1ZM621,800.3v-15.5h4.9v3.6h16.4v-3.6h4.9v15.5h-26.1ZM642.2,792.4h-16.4v4h16.4v-4ZM643.2,783.4c-.2,0-.5,0-.7,0-.2-.1-.3-.3-.3-.5v-22.6h4.9v10.2h6.3v4.2h-6.3v7.5l-3.9,1.3Z"/>
        <path d="M659.2,789.9v-27h4.9v22.9h17.2v4.1h-22.2ZM685.5,801c-.2,0-.5,0-.7,0-.2-.1-.3-.3-.3-.5v-40.2h4.9v39.5l-3.9,1.3Z"/>
        <path d="M698.7,790.2v-26.8h18.7v4.1h-13.9v18.5h17.6v4.1h-22.5ZM725.3,801c-.2,0-.5,0-.7,0-.2-.1-.3-.3-.3-.5v-40.2h4.9v14.2h6.5v4.2h-6.5v21l-3.9,1.3Z"/>
        <path d="M738.7,798.6v-5.4h5.4v5.4h-5.4Z"/>
      </g>
      <g>
        <path class="cls-11" d="M546.8,176.2c-4,1-6.8,4.6-6.8,8.7s2.8,7.7,6.8,8.7l73.8,18.2v-53.7l-73.8,18.2Z"/>
        <path class="cls-10" d="M613,215.9l-89.5,143.8c-1.7,2.8-1.8,6.2-.2,9.1,1.6,2.8,4.6,4.6,7.8,4.6h89.5l4.7-160.4c-4.2-2.6-9.7-1.4-12.3,2.8Z"/>
        <path class="cls-3" d="M748.6,372.7h-125.3c-3.9,0-7.3-2.5-8.5-6.1-1.2-3.7,0-7.7,3.1-10,19-14.3,32.2-55.4,32.2-82.9s-12.1-47.2-32.4-63.2c-3.2-2.5-4.3-6.8-2.7-10.5,1.6-3.7,5.5-5.9,9.5-5.3,70.4,9.8,122.6,85.4,130.6,149.2l2.4,18.9c.3,2.5-.5,5.1-2.2,7-1.7,1.9-4.1,3-6.7,3Z"/>
        <path class="cls-7" d="M629.5,167v233.3c0,5-3.9,9-9,9s-9-3.9-9-9v-233.3c0-5,3.9-9,9-9,5,0,9,3.9,9,9Z"/>
        <path class="cls-9" d="M620.5,409.2v-251.2c5,0,9,3.9,9,9v233.3c0,5-3.9,9-9,9Z"/>
        <path class="cls-11" d="M771.8,404l-20.1,42.7q0,.2-.2.4c-5.7-7-14.3-10.4-23.6-10.4s-19.7,3.8-25.4,12.4c-.7,1.1-1.8,1.6-2.7,2.3l-15.2.2c-1.1-.7-2.1-1.4-2.9-2.5-5.7-8.6-15.2-12.4-25.4-12.4s-12.7,1.6-17.9,4.8c-2.9,2-5.4,4.5-7.5,7.5-.9,1.3-2.1,2.1-3.4,3h-13.8c-1.3-.7-2.7-1.6-3.6-3-5.7-8.6-15.2-12.4-25.4-12.4s-19.7,3.8-25.4,12.4c-1.1,1.6-2.5,2.9-4.3,3.6l-12.2.2c-1.6-.9-3.2-2.1-4.3-3.8-4.3-6.4-11.5-10.2-18.9-11.6l-15.2-33.4c-1.4-2.7-1.1-5.9.5-8.6,1.6-2.5,4.5-4.1,7.5-4.1h251.2c3,0,5.9,1.6,7.5,4.1,1.6,2.7,2,5.9.5,8.6Z"/>
        <path class="cls-1" d="M771.8,404l-20.1,42.7q0,.2-.2.4c-5.7-7-14.3-10.4-23.6-10.4s-19.7,3.8-25.4,12.4c-.7,1.1-1.8,1.6-2.7,2.3l-15.2.2c-1.1-.7-2.1-1.4-2.9-2.5-5.7-8.6-15.2-12.4-25.4-12.4s-12.7,1.6-17.9,4.8c-2.9,2-5.4,4.5-7.5,7.5-.9,1.3-2.1,2.1-3.4,3h-7v-60.7h143.2c3,0,5.9,1.6,7.5,4.1,1.6,2.7,2,5.9.5,8.6Z"/>
        <path class="cls-6" d="M789.8,449.9c-5.7,8.6-15.2,13.6-25.4,13.6s-20.3-5-26-13.6c-4.7-7.2-16.1-7.2-20.8,0-5.7,8.6-15.2,13.6-25.4,13.6s-19.7-5-25.4-13.6c-4.7-7.2-16.1-7.2-20.8,0-2.1,3-4.7,5.7-7.5,7.7-5.2,3.9-11.3,5.9-17.9,5.9-10.2,0-19.7-5-25.4-13.6-4.7-7.2-16.1-7.2-20.8,0-5.7,8.6-15.2,13.6-25.4,13.6s-20.3-5-26-13.6c-4.7-7.2-16.1-7.2-20.8,0-2.9,4.1-8.4,5.2-12.5,2.5-4.1-2.7-5.2-8.2-2.5-12.4,5.7-8.6,15.2-12.4,25.4-12.4s20.3,3.8,26,12.4c4.7,7,16.1,7,20.8,0,5.7-8.6,15.2-12.4,25.4-12.4s19.7,3.8,25.4,12.4c2.3,3.4,6.4,5.2,10.4,5.2s8.1-1.8,10.4-5.2c2.1-3,4.7-5.5,7.5-7.5,5.2-3.2,11.3-4.8,17.9-4.8,10.2,0,19.7,3.8,25.4,12.4,4.7,7,16.1,7,20.8,0,5.7-8.6,15.2-12.4,25.4-12.4s19.7,3.8,25.4,12.4c4.7,7,16.7,7,21.4,0,2.9-4.1,8.4-5.2,12.5-2.5,4.1,2.7,5.2,8.2,2.5,12.4Z"/>
        <path class="cls-5" d="M789.8,449.9c-5.7,8.6-15.2,13.6-25.4,13.6s-20.3-5-26-13.6c-4.7-7.2-16.1-7.2-20.8,0-5.7,8.6-15.2,13.6-25.4,13.6s-19.7-5-25.4-13.6c-4.7-7.2-16.1-7.2-20.8,0-2.1,3-4.7,5.7-7.5,7.7-5.2,3.9-11.3,5.9-17.9,5.9v-18.3c3.9,0,8.1-1.8,10.4-5.2,2.1-3,4.7-5.5,7.5-7.5,5.2-3.2,11.3-4.8,17.9-4.8,10.2,0,19.7,3.8,25.4,12.4,4.7,7,16.1,7,20.8,0,5.7-8.6,15.2-12.4,25.4-12.4s19.7,3.8,25.4,12.4c4.7,7,16.7,7,21.4,0,2.9-4.1,8.4-5.2,12.5-2.5,4.1,2.7,5.2,8.2,2.5,12.4Z"/>
      </g>
      <path class="cls-12" d="M332.5,538.9c-1,1.3-1.9,2.9-1.7,4.5.1,1.1.7,2.1,1.3,3,.9,1.5,1.9,3,3.3,3.9,1.3.9,2.9,1.2,4.5,1.2,3,0,6.1-1.4,7.4-4.1.7-1.5.8-3.2.8-4.8,0-1,0-2-.3-2.9-1.9-7.9-11.6-5.8-15.3-.8Z"/>
      <path class="cls-12" d="M416.5,538.9c-1,1.3-1.9,2.9-1.7,4.5.1,1.1.7,2.1,1.3,3,.9,1.5,1.9,3,3.3,3.9,1.3.9,2.9,1.2,4.5,1.2,3,0,6.1-1.4,7.4-4.1.7-1.5.8-3.2.8-4.8,0-1,0-2-.3-2.9-1.9-7.9-11.6-5.8-15.3-.8Z"/>
      <path class="cls-12" d="M500.5,538.9c-1,1.3-1.9,2.9-1.7,4.5.1,1.1.7,2.1,1.3,3,.9,1.5,1.9,3,3.3,3.9,1.3.9,2.9,1.2,4.5,1.2,3,0,6.1-1.4,7.4-4.1.7-1.5.8-3.2.8-4.8,0-1,0-2-.3-2.9-1.9-7.9-11.6-5.8-15.3-.8Z"/>
      <path class="cls-12" d="M632.5,538.9c-1,1.3-1.9,2.9-1.7,4.5.1,1.1.7,2.1,1.3,3,.9,1.5,1.9,3,3.3,3.9,1.3.9,2.9,1.2,4.5,1.2,3,0,6.1-1.4,7.4-4.1.7-1.5.8-3.2.8-4.8,0-1,0-2-.3-2.9-1.9-7.9-11.6-5.8-15.3-.8Z"/>
      <path class="cls-12" d="M716.5,538.9c-1,1.3-1.9,2.9-1.7,4.5.1,1.1.7,2.1,1.3,3,.9,1.5,1.9,3,3.3,3.9,1.3.9,2.9,1.2,4.5,1.2,3,0,6.1-1.4,7.4-4.1.7-1.5.8-3.2.8-4.8,0-1,0-2-.3-2.9-1.9-7.9-11.6-5.8-15.3-.8Z"/>
      <path class="cls-12" d="M800.5,538.9c-1,1.3-1.9,2.9-1.7,4.5.1,1.1.7,2.1,1.3,3,.9,1.5,1.9,3,3.3,3.9,1.3.9,2.9,1.2,4.5,1.2,3,0,6.1-1.4,7.4-4.1.7-1.5.8-3.2.8-4.8,0-1,0-2-.3-2.9-1.9-7.9-11.6-5.8-15.3-.8Z"/>
      <g>
        <path class="cls-2" d="M537.2,404.2s0,0,0,0c0,0,0,0,0,0,0-.5,0-.8,0-.9,0,0,.3-.2.8-.2.7,0,1.9-.1,3.6-.2.1,0,.2,0,.4,0,.1,0,.2,0,.3.1,0,0,.1.1.2.1,0,0,0,.1.1.2,0,.1,0,.2,0,.3,0,0,0,.2,0,.4,0,.2,0,.3,0,.4,0,.3,0,.6,0,.8,0,.4,0,1.4,0,2.9s0,2.5,0,2.8c.1,2.6.2,4,.2,4,0,1.3-.2,2.9-.4,4.7,0,.2-.1.5-.3,1s-.2.7-.3.8l-5.5.3.2-5.9c-.8-.2-1.6-.3-2.4,0-.7.1-1.4.3-2.1.6,0,0-.1.1-.2.2,0,.1,0,.2,0,.3v2c0,.8,0,1.5,0,2,0,.5,0,.8-.2,1-.1.1-.5.2-1,.2-.2,0-.7,0-1.5.1-.8,0-1.3.1-1.4.1-.8,0-1.6,0-2.2,0,0,0-.2,0-.4-.2-.1-.1-.2-.2-.2-.3-.2-2.5-.3-5.2-.3-8.1,0-.2,0-.7,0-1.4,0-.8,0-1.5.1-2.2,0-.7,0-1.2,0-1.4,0-1.4,0-2.9,0-4.7s.2-.7.6-.7c1.5-.2,2.4-.2,2.7-.2.4,0,.9,0,1.7.1.8,0,1.3.1,1.5.1,0,.5.1,3.1.3,7.7.5,0,.9,0,1.3-.1.4,0,.6,0,.8,0,.1,0,.3,0,.5,0,.2,0,.5,0,.8,0s.2,0,.4,0c.2,0,.3,0,.4,0s.2,0,.3,0,.2,0,.3,0c0,0,.1-.1.2-.2,0,0,0-.2,0-.4v-1.9c0-.3,0-1.5,0-3.7Z"/>
        <path class="cls-2" d="M562.3,406.4c0,.4-.1.7-.4.9-.3.2-.6.4-.9.4s-.8,0-1.4,0c-.6,0-1,0-1.3,0s-.4,0-.6,0c-.8,0-1.8.2-2.8.5-.1,0-.3.3-.4.9,0,0,0,.1.1.2,0,0,.2.2.2.2.3,0,.5,0,.7.1.2,0,.4,0,.6.1.2,0,.3,0,.5,0,.2,0,.3,0,.4,0,0,0,.3,0,.5,0,.2,0,.4,0,.5,0,0,0,.3,0,.6,0,.3,0,.6,0,.7,0,1,0,1.6,0,2,0,.3,0,.6,0,.7.2.1.1.2.4.2.7,0,1.4,0,2.5,0,3.1,0,.6-.7,1-1.9,1.1-.6,0-1.3,0-1.9,0-1.2,0-2.4,0-3.6-.3,0,0-.4-.1-1-.3.1,1.7.2,2.6.3,2.9,0,0,.1.2.3.2.2,0,.3.1.4.1.4,0,1.4,0,3,0s2.7,0,3,0,.8,0,1.3.1c.3,0,.4.3.4.6-.2,1-.3,1.7-.3,2.2,0,1-.6,1.6-1.4,1.8-1.5.4-3.4.6-5.5.5-.3,0-2.1,0-5.3,0-.9,0-1.5-.2-1.8-.5-.3-.3-.6-.9-.7-1.7-.5-3.8-.7-6.7-.5-8.8.1-1.1.5-3.4,1.1-6.8,0-.4.3-1,.6-1.8.2-.5.5-.7.9-.8.2,0,.7,0,1.5,0,.8,0,1.3,0,1.5,0,1.7,0,3.3-.2,4.8-.6.1,0,.2,0,.3,0,0,0,.2,0,.2,0,0,0,0,0,.1,0,0,0,.1,0,.2,0s.2,0,.3,0c.3,0,.5,0,.6,0,1,.1,1.9.3,2.7.4.4,0,.6.3.6.7,0,.4,0,.9,0,1.6v1.7Z"/>
        <path class="cls-2" d="M575.6,401.7c.4,0,.6,0,.8.2.1.2.2.4.1.8,0,.4,0,1.1-.2,2.1,0,1-.1,1.5-.2,1.8,0,.2,0,.9-.1,2.1,0,1.1-.1,2.2-.2,3.2,0,1,0,1.7-.1,2,0,.3,0,.6.1.7,0,.1.3.2.6.2,1.4,0,3.4.3,6.2.6.6,0,.8.4.8,1,0,.8,0,2.4,0,4.8,0,.6-.3,1-.8,1-1.6.1-2.8.2-3.6.2-.1,0-.6,0-1.5,0-.9,0-1.4,0-1.6,0-1.4,0-2.6.1-3.4.2-.9,0-2.3.3-4.2.6-.4,0-.7.1-1,.1.2-2.6.3-4,.3-4.2.3-2.5.5-4.4.8-5.9.2-1.2.4-3,.4-5.3,0-2.3,0-3.8,0-4.5,0,0,0,0,0-.1,0-.8.1-1.2.3-1.3.1-.1.6-.2,1.4-.2,2.3,0,3.9,0,4.9,0Z"/>
        <path class="cls-2" d="M596.4,401.7c.4,0,.6,0,.8.2.1.2.2.4.1.8,0,.4,0,1.1-.2,2.1,0,1-.1,1.5-.2,1.8,0,.2,0,.9-.1,2.1,0,1.1-.1,2.2-.2,3.2,0,1,0,1.7-.1,2,0,.3,0,.6.1.7,0,.1.3.2.6.2,1.4,0,3.4.3,6.2.6.6,0,.8.4.8,1,0,.8,0,2.4,0,4.8,0,.6-.3,1-.8,1-1.6.1-2.8.2-3.6.2-.1,0-.6,0-1.5,0-.9,0-1.4,0-1.6,0-1.4,0-2.6.1-3.4.2-.9,0-2.3.3-4.2.6-.4,0-.7.1-1,.1.2-2.6.3-4,.3-4.2.3-2.5.5-4.4.8-5.9.2-1.2.4-3,.4-5.3,0-2.3,0-3.8,0-4.5,0,0,0,0,0-.1,0-.8.1-1.2.3-1.3.1-.1.6-.2,1.4-.2,2.3,0,3.9,0,4.9,0Z"/>
        <path class="cls-2" d="M618.1,401.9c1.4-.1,2.1-.2,2.2-.2,1.8-.1,3.3.4,4.4,1.8.6.7,1,1.6,1.2,2.6.5,3,.5,5.6-.1,7.9-.5,1.8-1,3.7-1.5,5.5-.6,2.1-2.1,3.3-4.5,3.5-.3,0-.8,0-1.4.2-.6,0-1.1.2-1.4.2-.3,0-.8,0-1.4,0-1.3-.2-2.8-.7-4.6-1.5-.7-.3-1.1-1-1.4-2.2-.7-2.5-.8-4.9-.5-7.3.4-2.6,1.5-5.3,3.4-8,.1-.1.3-.3.5-.5.2-.2.4-.3.5-.4s.3-.2.6-.4c.3-.2.5-.3.5-.3.9-.7,2.1-.9,3.5-.7ZM616.7,412.9c.1,1,.2,1.7.3,1.9,0,.1.2.3.4.4s.4.2.5.2.3,0,.5-.2c.2-.1.3-.3.4-.4.2-.4.3-.8.3-1.3,0-.2,0-.8,0-1.8,0-1-.1-1.5-.1-1.7,0-.2,0-.4-.2-.5-.1-.1-.3,0-.5,0-.4.2-.6.4-.8.6-.1.2-.2.6-.3,1.1-.1.8-.2,1.4-.3,1.7Z"/>
        <path class="cls-2" d="M641.8,402.7c.3,0,.8,0,1.4.1.6,0,1,.1,1.4.1.5,0,1.1,0,1.6-.1.3,0,.5,0,.6,0,.1,0,.2.3.2.5.1.7.6,3.3,1.4,7.7h.2c0,0,.2-.4.5-1s.5-1.1.6-1.3c0-.2.3-.9.6-2,.3-1.1.5-1.8.6-2.1.2-.5.5-1.2.9-2.2,0-.2.2-.3.5-.3,1.3,0,2.4-.1,3.2,0,0,0,.2,0,.3.2.1.1.2.2.2.3,0,.5.3,1.4.5,2.8.3,1.4.5,2.5.7,3.4.2.9.5,1.7.7,2.5,0,0,.2-.4.4-1,.3-.6.4-1,.5-1.3.2-.6.6-2.1,1.3-4.5,0-.1,0-.3.1-.7,0-.3.1-.6.2-.8,0-.2.1-.4.2-.5.1-.2.4-.3.7-.3.3,0,.7,0,1.2,0,.5,0,.8,0,.9,0s.5,0,.9,0,.8,0,1,0,.5,0,.8,0c.3,0,.5.1.7.3,0,0,0,.4,0,1.2-.7,3.2-1.3,5.9-1.8,8,0,.1-.3,1.3-.9,3.4-.6,2.3-.9,3.7-1,4.2-.2,1.2-.8,2-1.7,2.2-.7.2-1.9.5-3.6.8-.1,0-.4,0-.8,0-.1,0-.3-.2-.6-.4s-.3-.4-.5-.7c-.2-.3-.4-.5-.4-.6,0,0-.4-.7-1.1-1.8h-.2c-.5,1.8-.7,2.9-.8,3.1,0,.2-.1.4-.2.5,0,0-.2.1-.4.1-.4,0-.8,0-1.1.2-.7.3-1.8.4-3.3.3-.7,0-1.2,0-1.5,0-.6,0-1.2,0-1.6.1-.8.1-1.3-.2-1.6-1.1-.4-1.5-.7-2.6-.9-3.4-1-5-1.8-8.9-2.4-11.7,0-.3,0-.6-.1-.9s0-.8,0-1.2c0-.5,0-.8,0-1,.4-.5.9-.7,1.6-.7Z"/>
        <path class="cls-2" d="M676.3,401.9c1.4-.1,2.1-.2,2.2-.2,1.8-.1,3.3.4,4.4,1.8.6.7,1,1.6,1.2,2.6.5,3,.5,5.6-.1,7.9-.5,1.8-1,3.7-1.5,5.5-.6,2.1-2.1,3.3-4.5,3.5-.3,0-.8,0-1.4.2-.6,0-1.1.2-1.4.2-.3,0-.8,0-1.4,0-1.3-.2-2.8-.7-4.6-1.5-.7-.3-1.1-1-1.4-2.2-.7-2.5-.8-4.9-.5-7.3.4-2.6,1.5-5.3,3.4-8,.1-.1.3-.3.5-.5.2-.2.4-.3.5-.4.1,0,.3-.2.6-.4.3-.2.5-.3.5-.3.9-.7,2.1-.9,3.5-.7ZM674.9,412.9c.1,1,.2,1.7.3,1.9,0,.1.2.3.4.4s.4.2.5.2.3,0,.5-.2c.2-.1.3-.3.4-.4.2-.4.3-.8.3-1.3,0-.2,0-.8,0-1.8,0-1-.1-1.5-.1-1.7,0-.2,0-.4-.2-.5-.1-.1-.3,0-.5,0-.4.2-.6.4-.8.6-.1.2-.2.6-.3,1.1-.1.8-.2,1.4-.3,1.7Z"/>
        <path class="cls-2" d="M688.8,403c0-.1,0-.3-.1-.5,0-.2-.1-.3-.1-.4.5-.2.9-.3,1.4-.5s.8-.2,1.1-.3c.3,0,.7-.1,1.2-.2s.9,0,1.1-.1c.2,0,.7,0,1.4,0,.7,0,1.2,0,1.5,0,1.3,0,2.3,0,3,0,2.3,0,4.1,1,5.3,2.8.5.8.9,1.7.9,2.6,0,.9,0,1.8-.3,2.7-.3.9-.7,1.6-1.2,2.4s-1,1.3-1.6,1.9c0,0-.3.2-.8.6v.2c1.2.3,1.8.5,1.9.5.9.2,1.4.9,1.6,2.1,0,.6.3,2.6.6,5.9,0,.4-.1.6-.5.6-2.5.3-4,.5-4.6.6-.3,0-.5,0-.6,0-.1-.1-.2-.3-.2-.6-.1-1-.2-1.8-.3-2.4-.1-.9-.6-1.3-1.5-1.3h-1.8c-.4,0-.7,0-.8.2-.2.1-.2.4-.3.8,0,.2,0,1.3-.2,3.3,0,0,0,0-.1,0,0,0-.8,0-2.3.2-1.5.1-2.4.2-2.7.2-.2,0-.4,0-.6-.2-.1-.2-.2-.4-.2-.8,0-.1,0-1,0-2.5v-7c0-.3,0-1.5,0-3.5s0-3.2,0-3.6,0-.8,0-1.8,0-1.5,0-1.7ZM693.9,411.5c.6-.1,1.2-.3,1.8-.4s1-.2,1.2-.3c.2,0,.5-.1.7-.2.6-.1,1-.3,1.2-.5.7-.7.8-1.5.4-2.6-.2-.5-.6-1-1.3-1.2-.7-.3-1.5-.4-2.3-.2-.6.1-1.1.2-1.7.4-.3,0-.5.3-.4.6,0,.9.1,1.7.2,2.6,0,0,0,.7.3,1.8Z"/>
        <path class="cls-2" d="M718,401.7c.4,0,.6,0,.8.2s.2.4.1.8c0,.4,0,1.1-.2,2.1,0,1-.1,1.5-.2,1.8,0,.2,0,.9-.1,2.1,0,1.1-.1,2.2-.2,3.2s0,1.7-.1,2c0,.3,0,.6.1.7s.3.2.6.2c1.4,0,3.4.3,6.2.6.6,0,.8.4.8,1,0,.8,0,2.4,0,4.8,0,.6-.3,1-.8,1-1.6.1-2.8.2-3.6.2-.1,0-.6,0-1.5,0-.9,0-1.4,0-1.6,0-1.4,0-2.6.1-3.4.2-.9,0-2.3.3-4.2.6-.4,0-.7.1-1,.1.2-2.6.3-4,.3-4.2.3-2.5.5-4.4.8-5.9.2-1.2.4-3,.4-5.3,0-2.3,0-3.8,0-4.5,0,0,0,0,0-.1,0-.8.1-1.2.3-1.3.1-.1.6-.2,1.4-.2,2.3,0,3.9,0,4.9,0Z"/>
        <path class="cls-2" d="M734.1,423.2c0,0-.3,0-.6,0-.3,0-.5,0-.5,0-.4,0-.6,0-.7,0-.6-.5-.8-1-.9-1.4-.3-5.1-.6-11.4-.8-18.6,0,0,0-.2,0-.6.7-.2,1.1-.3,1.1-.3,1.2-.6,2.7-.7,4.5-.5,2.7.4,4.3.6,4.6.7,1.7.3,3.3,1,4.7,2.2.5.4,1.1,1.1,1.8,2.2,1.6,2.3,2.4,4.5,2.4,6.8,0,1.9-.3,3.5-1.1,4.7-.7,1.2-1.8,2.2-3.3,3.1-.9.5-1.7.9-2.7,1.1-.9.2-2.1.4-3.4.5-2.3.3-3.8.4-4.4.3-.3,0-.6,0-.7,0ZM736.7,409.5c.3,3,.5,4.7.5,5.1,0,.4.3.6.7.6,1.3,0,1.9,0,2,0,.6,0,1.1-.4,1.5-.9.3-.5.5-1.2.4-1.9,0-.6-.2-1.1-.4-1.4-.2-.3-.5-.6-.9-.8-.5-.3-1-.4-1.6-.5-.5,0-1.2-.1-2.2-.1Z"/>
      </g>
    </g>
  </g>
</svg>